<svg xmlns="http://www.w3.org/2000/svg" width="72" height="60" viewBox="0 0 72 60">
    <g fill="#EA3571" fill-rule="nonzero">
        <path d="M69.396 44.072h-3.8V5.9A5.573 5.573 0 0 0 60.022.327H11.183A5.573 5.573 0 0 0 5.61 5.9v38.172H1.817A1.817 1.817 0 0 0 0 45.889v6.474a6.903 6.903 0 0 0 6.896 6.896h57.406a6.903 6.903 0 0 0 6.91-6.896V45.89a1.817 1.817 0 0 0-1.816-1.817zM9.25 5.9a1.94 1.94 0 0 1 1.94-1.94h48.84a1.94 1.94 0 0 1 1.94 1.94v38.172H42.677a1.817 1.817 0 0 0-1.817 1.817v1.824H30.353v-1.824a1.817 1.817 0 0 0-1.817-1.817H9.25V5.9zm58.33 46.463a3.27 3.27 0 0 1-3.263 3.263H6.91a3.27 3.27 0 0 1-3.278-3.263v-4.658H26.72v.255a3.415 3.415 0 0 0 3.408 3.408h10.958a3.415 3.415 0 0 0 3.408-3.408v-.226H67.58v4.63z"/>
        <path d="M42.488 33.027a4.665 4.665 0 0 0 4.665-4.687v-6.148a4.665 4.665 0 0 0-4.055-4.621v-3.038a6.373 6.373 0 0 0-6.365-6.365h-.967a6.373 6.373 0 0 0-6.365 6.365v3.016a4.665 4.665 0 0 0-4.055 4.621v6.17a4.665 4.665 0 0 0 4.665 4.665l12.477.022zM35.766 11.83h.967a2.74 2.74 0 0 1 2.732 2.703v2.972h-6.431v-2.972a2.732 2.732 0 0 1 2.732-2.703zM28.98 28.34v-6.148c0-.57.462-1.032 1.032-1.032h12.477c.57 0 1.032.462 1.032 1.032v6.148c0 .57-.462 1.032-1.032 1.032H30.01c-.57 0-1.032-.462-1.032-1.032zM23.587 37.14a1.81 1.81 0 1 0 2.566 0 1.875 1.875 0 0 0-2.566 0z"/>
        <circle cx="39.93" cy="38.426" r="1.817"/>
        <circle cx="32.402" cy="38.426" r="1.817"/>
        <path d="M45.954 37.416a1.795 1.795 0 0 0-.167.312 1.773 1.773 0 0 0-.109 1.068c.025.115.062.227.109.335.044.112.1.22.167.32.067.098.142.19.225.276.343.338.805.529 1.287.53a2.02 2.02 0 0 0 .356-.036 2.18 2.18 0 0 0 .647-.254 1.737 1.737 0 0 0 .5-.502 1.7 1.7 0 0 0 .168-.32c.047-.107.083-.22.109-.334.05-.24.05-.487 0-.727a1.94 1.94 0 0 0-.276-.654c-.065-.1-.14-.192-.226-.276a1.875 1.875 0 0 0-2.565 0c-.084.08-.16.167-.225.262z"/>
    </g>
</svg>
