<svg xmlns="http://www.w3.org/2000/svg" width="184" height="24" viewBox="0 0 184 24">
    <g fill="none" fill-rule="evenodd">
        <path fill="#192639" d="M47.2 23.605h4.462v-11.67l-.296-4.998 5.643 16.668h5.347l6.397-16.438-.13 4.767v11.671h4.494V.362h-5.479l-7.84 19.528L52.907.362H47.2v23.243zm31.854 0h4.462V.362h-4.462v23.243zm24.178 0h5.741L98.935 11.178l9.48-10.816h-5.708l-8.66 10.52v.526l9.185 12.197zm-13.745 0h4.461V.362h-4.461v23.243zm20.077 0L118.618.362h5.807l8.037 23.243h-4.658l-2.56-7.528h-8.332l-2.854 7.528h-4.494zm8.595-10.849h6.003l-2.821-9.534-3.182 9.534zm17.65 10.85V.361h7.512c7.808 0 13.286 3.649 13.286 11.54 0 8.087-4.986 11.703-13.09 11.703h-7.709zm4.428-3.551h3.642c5.577 0 8.234-2.696 8.234-7.825 0-5.589-3.084-8.318-8.89-8.318h-2.986v16.143zM171.6 24c-7.775 0-11.842-4.734-11.842-12.066C159.757 4.636 164.612 0 172.223 0 180.293 0 184 5.129 184 12c0 7.299-4.462 12-12.4 12zm.099-3.584c5.511 0 7.742-3.682 7.742-8.449 0-4.8-2.428-8.383-7.513-8.383-5.314 0-7.643 3.583-7.643 8.317 0 4.636 2.263 8.515 7.414 8.515z"/>
        <path fill="#EA3571" d="M5.572 0L0 5.584l5.572 5.584 5.573-5.584z"/>
        <path fill="#01AFC4" d="M0 18.416L5.572 24l5.573-5.584-5.573-5.584zM17.57 12.022l-5.573 5.584-5.572-5.584 5.572-5.584zM18.378 0l-5.572 5.584 5.572 5.584 5.573-5.584z"/>
        <path fill="#EA3571" d="M12.806 18.416L18.378 24l5.573-5.584-5.573-5.584zM30.375 12.022l-5.572 5.584-5.573-5.584 5.573-5.584zM31.228 0l-5.573 5.584 5.573 5.584L36.8 5.584z"/>
        <path fill="#01AFC4" d="M25.655 18.416L31.228 24l5.572-5.584-5.572-5.584z"/>
    </g>
</svg>
