<svg xmlns="http://www.w3.org/2000/svg" width="62" height="72" viewBox="0 0 62 72">
    <g fill="none" fill-rule="evenodd">
        <path d="M12.414 16.138h37.241v37.241H12.414z"/>
        <path fill="#EA3571" fill-rule="nonzero" d="M1.033 52.213a8.933 8.933 0 0 1-.637 4.666 1.817 1.817 0 1 0 3.332 1.449 12.562 12.562 0 0 0 .891-6.564l-.985-7.462a3.188 3.188 0 0 1 .073-1.152l4.716-18.836a2.688 2.688 0 0 1 3.072-1.95 2.673 2.673 0 0 1 2.122 3.232l-2.405 11.816a1.811 1.811 0 0 0 .522 1.666c.043.044 4.463 4.347 4.463 10.686a1.811 1.811 0 0 0 3.622 0 19.735 19.735 0 0 0-4.869-12.54l2.217-10.947a6.281 6.281 0 0 0-3.528-7.064V7.165a3.543 3.543 0 0 1 3.536-3.543h29.703a3.543 3.543 0 0 1 3.543 3.543v4.572l-1.536 1.535a6.078 6.078 0 0 0 0 8.6c.253.25.527.478.819.681l-.819.819a6.078 6.078 0 0 0 .804 9.273l-.804.804a6.078 6.078 0 0 0 .804 9.274l-.804.804a6.071 6.071 0 0 0 1.536 9.715v1.449a3.543 3.543 0 0 1-3.543 3.543H25.035a1.811 1.811 0 1 0 0 3.622h12.476a13.838 13.838 0 0 1-8.093 5.579 1.812 1.812 0 0 0 .862 3.52 17.467 17.467 0 0 0 11.454-9.106h5.159a7.172 7.172 0 0 0 7.165-7.165v-.855a6.028 6.028 0 0 0 3.441-1.717l1.703-1.703a6.086 6.086 0 0 0 0-8.6 6.136 6.136 0 0 0-.805-.673l.805-.804a6.057 6.057 0 0 0-.812-9.274l.804-.804a6.057 6.057 0 0 0-.818-9.244l.818-.819a6.064 6.064 0 0 0-5.136-10.338V7.165A7.172 7.172 0 0 0 46.893 0H17.189a7.172 7.172 0 0 0-7.165 7.165v11.592a6.346 6.346 0 0 0-5.071 4.622L.193 42.244a6.832 6.832 0 0 0-.138 2.478l.978 7.491zM51.493 29.4a2.456 2.456 0 0 1 0-3.477l1.703-1.703a2.459 2.459 0 0 1 3.477 3.478l-1.702 1.702a2.514 2.514 0 0 1-3.478 0zm0 10.078a2.456 2.456 0 0 1 0-3.478l1.703-1.702a2.456 2.456 0 0 1 3.47 3.477l-1.703 1.703a2.514 2.514 0 0 1-3.47 0zm5.173 8.375l-1.732 1.702a2.514 2.514 0 0 1-3.477 0 2.456 2.456 0 0 1 0-3.477l1.702-1.703a2.459 2.459 0 1 1 3.478 3.478h.029zm0-33.725a2.463 2.463 0 0 1 0 3.478l-1.703 1.702a2.514 2.514 0 0 1-3.477 0 2.456 2.456 0 0 1 0-3.477l1.702-1.703a2.456 2.456 0 0 1 3.47 0h.008z"/>
        <path fill="#EA3571" fill-rule="nonzero" d="M28.552 51.466c0 1 .81 1.812 1.81 1.812h6.376a1.811 1.811 0 0 0 0-3.623h-6.375c-1 0-1.811.811-1.811 1.811z"/>
        <circle cx="32.897" cy="31.655" r="1.862" fill="#EA3571" fill-rule="nonzero"/>
        <circle cx="25.448" cy="31.655" r="1.862" fill="#EA3571" fill-rule="nonzero"/>
        <circle cx="40.345" cy="31.655" r="1.862" fill="#EA3571" fill-rule="nonzero"/>
    </g>
</svg>
