<svg xmlns="http://www.w3.org/2000/svg" width="27" height="26" viewBox="0 0 27 26">
    <g fill="#BDC3C7" fill-rule="nonzero">
        <path d="M14.216 14.26c-1.256 0-2.284-1.008-2.284-2.24V2.78c0-.06.004-.118.007-.175h-.007C5.37 2.604.05 7.822.05 14.26c0 6.436 5.32 11.654 11.883 11.654 6.563 0 11.883-5.218 11.883-11.654v-.007c-.058.003-.116.007-.18.007h-9.419z"/>
        <path d="M26.122 9.48c-.935-4.6-4.628-8.221-9.317-9.138a12.194 12.194 0 0 0-2.329-.226 2.67 2.67 0 0 0-.006.176V9.53c0 1.232 1.027 2.24 2.284 2.24h9.42c.062 0 .12-.003.179-.007 0-.782-.08-1.545-.231-2.284zm-2.23.73h-5.69c-.76 0-1.38-.608-1.38-1.353V3.276c0-.037.002-.072.004-.107.481 0 .951.048 1.407.137 2.832.554 5.064 2.742 5.628 5.52.091.447.14.908.14 1.38a1.88 1.88 0 0 1-.109.005z"/>
    </g>
</svg>
