<svg xmlns="http://www.w3.org/2000/svg" width="58" height="58" viewBox="0 0 58 58">
    <g fill="none" fill-rule="evenodd">
        <path fill="#FFF" d="M14 14h30v30H14z"/>
        <g fill="#9FAAB5" fill-rule="nonzero" transform="translate(0 5)">
            <path d="M55.902 35.502h-3.061V4.753a4.49 4.49 0 0 0-4.49-4.49H9.01a4.49 4.49 0 0 0-4.49 4.49v30.75H1.463c-.808 0-1.463.655-1.463 1.463v5.215a5.561 5.561 0 0 0 5.555 5.556H51.8a5.561 5.561 0 0 0 5.567-5.556v-5.215c0-.808-.655-1.464-1.464-1.464zM7.452 4.753c0-.863.7-1.563 1.563-1.563h39.342c.863 0 1.563.7 1.563 1.563v30.75H34.379c-.809 0-1.464.655-1.464 1.463v1.47h-8.464v-1.47c0-.808-.655-1.464-1.464-1.464H7.452V4.753zm46.987 37.428a2.634 2.634 0 0 1-2.628 2.629H5.567a2.634 2.634 0 0 1-2.64-2.629V38.43h18.597v.205a2.751 2.751 0 0 0 2.745 2.746h8.828a2.751 2.751 0 0 0 2.745-2.746v-.181h18.597v3.728z"/>
            <path d="M34.226 26.605a3.758 3.758 0 0 0 3.758-3.776v-4.952a3.758 3.758 0 0 0-3.266-3.723v-2.447A5.134 5.134 0 0 0 29.59 6.58h-.778a5.134 5.134 0 0 0-5.128 5.127v2.43a3.758 3.758 0 0 0-3.266 3.723v4.97a3.758 3.758 0 0 0 3.758 3.757l10.05.018zM28.812 9.53h.778a2.207 2.207 0 0 1 2.201 2.177v2.394h-5.18v-2.394a2.201 2.201 0 0 1 2.2-2.177zm-5.468 13.3v-4.953c0-.459.373-.831.832-.831h10.05c.46 0 .832.372.832.831v4.952c0 .46-.373.831-.832.831h-10.05a.831.831 0 0 1-.832-.83zM19.001 29.918a1.458 1.458 0 1 0 2.066 0 1.51 1.51 0 0 0-2.066 0z"/>
            <circle cx="32.166" cy="30.954" r="1.463"/>
            <circle cx="26.101" cy="30.954" r="1.463"/>
            <path d="M37.019 30.14c-.054.08-.099.164-.135.252a1.428 1.428 0 0 0-.088.86c.02.093.05.183.088.27.035.09.08.177.135.258.053.079.114.153.181.222a1.481 1.481 0 0 0 1.323.398 1.756 1.756 0 0 0 .521-.205 1.399 1.399 0 0 0 .404-.404 1.37 1.37 0 0 0 .134-.257c.038-.087.068-.177.088-.27.04-.193.04-.392 0-.585a1.563 1.563 0 0 0-.222-.527 1.3 1.3 0 0 0-.182-.222 1.51 1.51 0 0 0-2.066 0 1.3 1.3 0 0 0-.181.21z"/>
        </g>
    </g>
</svg>
