<svg xmlns="http://www.w3.org/2000/svg" width="28" height="24" viewBox="0 0 28 24">
    <path fill="#BDC3C7" fill-rule="evenodd" d="M25.143 7.992c0-.541-.44-1.135-.98-1.135H2.792c-.28 0-.506.38-.506.66v13.724c0 .261.212.473.472.473h22.35c.02 0 .035-.015.035-.035V7.992zM2.286 3.43c0 .631.532 1.142 1.188 1.142H20.57V2.787a.512.512 0 0 0-.52-.501H3.473c-.656 0-1.188.511-1.188 1.143zM27.429 8.3v13.266c0 1.342-1.11 2.434-2.473 2.434H2.904C1.303 24 0 22.718 0 21.142V3.59C0 1.61 1.634 0 3.643 0h16.853c1.678 0 2.97 1.345 2.97 2.998V4.8h.558c1.877 0 3.405 1.652 3.405 3.5zm-5.241 4.94a2.287 2.287 0 0 1-1.617 3.903c-.6 0-1.188-.245-1.616-.67a2.311 2.311 0 0 1-.67-1.616 2.3 2.3 0 0 1 .67-1.616 2.286 2.286 0 0 1 3.233 0z"/>
</svg>
